<svg width="14" height="14" viewBox="0 0 14 14" fill="none" xmlns="http://www.w3.org/2000/svg">
<path d="M11.1864 3.76221C11.1864 4.27997 10.7667 4.69971 10.2489 4.69971C9.73113 4.69971 9.3114 4.27997 9.3114 3.76221C9.3114 3.24444 9.73113 2.82471 10.2489 2.82471C10.7667 2.82471 11.1864 3.24444 11.1864 3.76221Z" fill="white"/>
<path fill-rule="evenodd" clip-rule="evenodd" d="M6.8114 10.3247C8.53729 10.3247 9.9364 8.9256 9.9364 7.19971C9.9364 5.47382 8.53729 4.07471 6.8114 4.07471C5.08551 4.07471 3.6864 5.47382 3.6864 7.19971C3.6864 8.9256 5.08551 10.3247 6.8114 10.3247ZM6.8114 9.07471C7.84694 9.07471 8.6864 8.23524 8.6864 7.19971C8.6864 6.16417 7.84694 5.32471 6.8114 5.32471C5.77587 5.32471 4.9364 6.16417 4.9364 7.19971C4.9364 8.23524 5.77587 9.07471 6.8114 9.07471Z" fill="white"/>
<path fill-rule="evenodd" clip-rule="evenodd" d="M0.561401 6.94971C0.561401 4.84951 0.561401 3.79941 0.970127 2.99724C1.32965 2.29163 1.90333 1.71796 2.60894 1.35843C3.41111 0.949707 4.4612 0.949707 6.5614 0.949707H7.0614C9.1616 0.949707 10.2117 0.949707 11.0139 1.35843C11.7195 1.71796 12.2932 2.29163 12.6527 2.99724C13.0614 3.79941 13.0614 4.84951 13.0614 6.94971V7.44971C13.0614 9.5499 13.0614 10.6 12.6527 11.4022C12.2932 12.1078 11.7195 12.6815 11.0139 13.041C10.2117 13.4497 9.1616 13.4497 7.0614 13.4497H6.5614C4.4612 13.4497 3.41111 13.4497 2.60894 13.041C1.90333 12.6815 1.32965 12.1078 0.970127 11.4022C0.561401 10.6 0.561401 9.5499 0.561401 7.44971V6.94971ZM6.5614 2.19971H7.0614C8.13213 2.19971 8.85999 2.20068 9.4226 2.24665C9.97062 2.29142 10.2509 2.37258 10.4464 2.47219C10.9168 2.71187 11.2992 3.09433 11.5389 3.56473C11.6385 3.76023 11.7197 4.04048 11.7645 4.5885C11.8104 5.15112 11.8114 5.87898 11.8114 6.94971V7.44971C11.8114 8.52043 11.8104 9.2483 11.7645 9.81091C11.7197 10.3589 11.6385 10.6392 11.5389 10.8347C11.2992 11.3051 10.9168 11.6875 10.4464 11.9272C10.2509 12.0268 9.97062 12.108 9.4226 12.1528C8.85999 12.1987 8.13213 12.1997 7.0614 12.1997H6.5614C5.49068 12.1997 4.76281 12.1987 4.2002 12.1528C3.65218 12.108 3.37192 12.0268 3.17643 11.9272C2.70602 11.6875 2.32357 11.3051 2.08389 10.8347C1.98427 10.6392 1.90312 10.3589 1.85834 9.81091C1.81237 9.2483 1.8114 8.52043 1.8114 7.44971V6.94971C1.8114 5.87898 1.81237 5.15112 1.85834 4.5885C1.90312 4.04048 1.98427 3.76023 2.08389 3.56473C2.32357 3.09433 2.70602 2.71187 3.17643 2.47219C3.37192 2.37258 3.65218 2.29142 4.2002 2.24665C4.76281 2.20068 5.49068 2.19971 6.5614 2.19971Z" fill="white"/>
</svg>
