<svg width="67" height="67" viewBox="0 0 67 67" fill="none" xmlns="http://www.w3.org/2000/svg">
<path d="M27.2554 38.0811L31.6829 41.5186C32.2604 42.0961 33.5529 42.371 34.4054 42.371H39.8504C41.5554 42.371 43.4254 41.0786 43.8654 39.3736L47.3029 28.951C48.0179 26.9435 46.7254 25.2385 44.5804 25.2385H38.8604C38.0079 25.2385 37.2929 24.5235 37.4304 23.5335L38.1454 18.9684C38.4204 17.6759 37.5679 16.2459 36.2754 15.8334C35.1204 15.3934 33.6904 15.9709 33.1404 16.8234L27.2829 25.541" stroke="#FBBC05" stroke-width="1.5" stroke-miterlimit="10"/>
<path d="M19.9683 38.0813V24.0836C19.9683 22.0761 20.8207 21.3611 22.8282 21.3611H24.2583C26.2658 21.3611 27.1183 22.0761 27.1183 24.0836V38.0813C27.1183 40.0888 26.2658 40.8038 24.2583 40.8038H22.8282C20.8207 40.8038 19.9683 40.0888 19.9683 38.0813Z" stroke="#FBBC05" stroke-width="1.5" stroke-linecap="round" stroke-linejoin="round"/>
<path d="M50.2183 51.9961H48.1283C45.9283 51.9961 43.8382 52.8486 42.2982 54.3886L37.5958 59.0363C35.4508 61.1538 31.9583 61.1538 29.8133 59.0363L25.1107 54.3886C23.5707 52.8486 21.4533 51.9961 19.2808 51.9961H17.2183C12.6533 51.9961 8.96826 48.3387 8.96826 43.8287V13.8261C8.96826 9.31611 12.6533 5.65869 17.2183 5.65869H50.2183C54.7833 5.65869 58.4683 9.31611 58.4683 13.8261V43.8287C58.4683 48.3112 54.7833 51.9961 50.2183 51.9961Z" stroke="#FBBC05" stroke-width="1.5" stroke-miterlimit="10" stroke-linecap="round" stroke-linejoin="round"/>
</svg>
