<svg width="67" height="67" viewBox="0 0 67 67" fill="none" xmlns="http://www.w3.org/2000/svg">
<path d="M15.6782 24.8916C20.994 24.8916 25.3032 20.5823 25.3032 15.2666C25.3032 9.95086 20.994 5.6416 15.6782 5.6416C10.3625 5.6416 6.05322 9.95086 6.05322 15.2666C6.05322 20.5823 10.3625 24.8916 15.6782 24.8916Z" stroke="#FDDD81" stroke-width="1.5"/>
<path d="M47.3037 41.3916H55.5537C58.5787 41.3916 61.0537 43.8666 61.0537 46.8916V55.1416C61.0537 58.1666 58.5787 60.6416 55.5537 60.6416H47.3037C44.2787 60.6416 41.8037 58.1666 41.8037 55.1416V46.8916C41.8037 43.8666 44.2787 41.3916 47.3037 41.3916Z" stroke="#FDDD81" stroke-width="1.5"/>
<path d="M33.6359 13.8916H41.0059C46.0934 13.8916 48.4584 20.1891 44.6359 23.5441L22.6634 42.7666C18.8409 46.0941 21.2059 52.3916 26.2659 52.3916H33.6359" stroke="#FDDD81" stroke-width="1.5" stroke-linecap="round" stroke-linejoin="round"/>
<path d="M15.7225 15.2666H15.7542" stroke="#FDDD81" stroke-width="2" stroke-linecap="round" stroke-linejoin="round"/>
<path d="M51.472 51.0166H51.5038" stroke="#FDDD81" stroke-width="2" stroke-linecap="round" stroke-linejoin="round"/>
</svg>
