<svg width="67" height="67" viewBox="0 0 67 67" fill="none" xmlns="http://www.w3.org/2000/svg">
<path d="M42.8749 14.4365L46.7523 22.1915C47.2748 23.264 48.6773 24.2815 49.8598 24.5015L56.8724 25.6565C61.3549 26.399 62.3999 29.644 59.1824 32.889L53.7098 38.3615C52.8023 39.269 52.2799 41.0565 52.5824 42.349L54.1498 49.114C55.3873 54.449 52.5274 56.539 47.8249 53.734L41.2523 49.829C40.0698 49.114 38.0899 49.114 36.9074 49.829L30.3348 53.734C25.6323 56.5115 22.7724 54.449 24.0099 49.114L25.5774 42.349C25.8799 41.084 25.3574 39.2965 24.4499 38.3615L18.9774 32.889C15.7599 29.6715 16.8049 26.4265 21.2874 25.6565L28.2998 24.5015C29.4823 24.309 30.8849 23.264 31.4074 22.1915L35.2849 14.4365C37.3474 10.229 40.7574 10.229 42.8749 14.4365Z" stroke="#FCD562" stroke-width="1.5" stroke-linecap="round" stroke-linejoin="round"/>
<path d="M22.5522 13.859H6.05225" stroke="#FCD562" stroke-width="1.5" stroke-linecap="round" stroke-linejoin="round"/>
<path d="M14.3022 52.359H6.05225" stroke="#FCD562" stroke-width="1.5" stroke-linecap="round" stroke-linejoin="round"/>
<path d="M8.80225 33.109H6.05225" stroke="#FCD562" stroke-width="1.5" stroke-linecap="round" stroke-linejoin="round"/>
</svg>
