<svg width="19" height="15" viewBox="0 0 19 15" fill="none" xmlns="http://www.w3.org/2000/svg">
<path d="M6.17937 14.6997C4.15749 14.6997 2.27276 14.1116 0.686401 13.097C2.03327 13.1841 4.41019 12.9754 5.88864 11.5652C3.66457 11.4631 2.66157 9.75739 2.53074 9.02843C2.71971 9.10133 3.62097 9.1888 4.12974 8.9847C1.57134 8.34322 1.17886 6.09803 1.26607 5.41282C1.74577 5.74814 2.55981 5.86477 2.87961 5.83561C0.495647 4.12985 1.35329 1.56393 1.77485 1.00993C3.48567 3.38012 6.04965 4.71131 9.22164 4.78536C9.16183 4.52306 9.13025 4.24997 9.13025 3.96948C9.13025 1.95653 10.7573 0.324707 12.7643 0.324707C13.813 0.324707 14.7579 0.770178 15.4212 1.48273C16.122 1.31852 17.1766 0.934124 17.6922 0.60171C17.4323 1.53477 16.6232 2.31314 16.1338 2.60163C16.1299 2.59177 16.1379 2.61144 16.1338 2.60163C16.5637 2.5366 17.7269 2.31306 18.1864 2.0013C17.9592 2.52549 17.1014 3.39704 16.3975 3.88497C16.5284 9.66099 12.1092 14.6997 6.17937 14.6997Z" fill="#666666"/>
</svg>
